<svg xmlns="http://www.w3.org/2000/svg" aria-hidden="true" style="position:absolute;width:0;height:0;overflow:hidden"><defs><symbol id="icon-menu" viewBox="0 0 59 32"><path stroke-linecap="round" stroke-width="4.923" d="M2.462 3.692h54.154M2.462 16h54.154M2.462 28.308h54.154"/></symbol><symbol id="icon-cross" viewBox="0 0 32 32"><path d="M3.167 31.167.834 28.834l12.833-12.833L.834 3.168 3.167.835 16 13.668 28.833.835l2.333 2.333-12.833 12.833 12.833 12.833-2.333 2.333L16 18.334 3.167 31.167z"/></symbol><symbol id="icon-rigth" viewBox="0 0 32 32"><path fill="#fff" d="m16 31.238-2-2.048 11.762-11.762h-25v-2.857h25L14 2.809l2-2.048 15.238 15.238L16 31.237z" style="fill:var(--color1, #fff)"/></symbol><symbol id="icon-left" viewBox="0 0 32 32"><path fill="#fff" d="m16 .762 2 2.048L6.238 14.572h25v2.857h-25L18 29.191l-2 2.048L.762 16.001 16 .763z" style="fill:var(--color1, #fff)"/></symbol></defs></svg>